PathFileType	4	(X/Y/Z)	Kaydara	
DataRate	CameraRate	NumFrames	NumMarkers	Units	OrigDataRate	OrigDataStartFrame	OrigNumFrames	
240.00	240.00	4	72	mm	240.00	225	359	
Frame#	Time	Hips			RightUpLeg			RightLeg			RightFoot			RightFoot_End			LeftUpLeg			LeftLeg			LeftFoot			LeftFoot_End			Spine			Spine1			Spine2			Spine3			Neck			Head			Head_End			RightShoulder			RightArm			RightForeArm			RightHand			RightHandThumb1			RightHandThumb2			RightHandThumb3			RightHandThumb3_End			RightInHandIndex			RightHandIndex1			RightHandIndex2			RightHandIndex3			RightHandIndex3_End			RightInHandMiddle			RightHandMiddle1			RightHandMiddle2			RightHandMiddle3			RightHandMiddle3_End			RightInHandRing			RightHandRing1			RightHandRing2			RightHandRing3			RightHandRing3_End			RightInHandPinky			RightHandPinky1			RightHandPinky2			RightHandPinky3			RightHandPinky3_End			LeftShoulder			LeftArm			LeftForeArm			LeftHand			LeftHandThumb1			LeftHandThumb2			LeftHandThumb3			LeftHandThumb3_End			LeftInHandIndex			LeftHandIndex1			LeftHandIndex2			LeftHandIndex3			LeftHandIndex3_End			LeftInHandMiddle			LeftHandMiddle1			LeftHandMiddle2			LeftHandMiddle3			LeftHandMiddle3_End			LeftInHandRing			LeftHandRing1			LeftHandRing2			LeftHandRing3			LeftHandRing3_End			LeftInHandPinky			LeftHandPinky1			LeftHandPinky2			LeftHandPinky3			LeftHandPinky3_End			
		X1	Y1	Z1	X2	Y2	Z2	X3	Y3	Z3	X4	Y4	Z4	X5	Y5	Z5	X6	Y6	Z6	X7	Y7	Z7	X8	Y8	Z8	X9	Y9	Z9	X10	Y10	Z10	X11	Y11	Z11	X12	Y12	Z12	X13	Y13	Z13	X14	Y14	Z14	X15	Y15	Z15	X16	Y16	Z16	X17	Y17	Z17	X18	Y18	Z18	X19	Y19	Z19	X20	Y20	Z20	X21	Y21	Z21	X22	Y22	Z22	X23	Y23	Z23	X24	Y24	Z24	X25	Y25	Z25	X26	Y26	Z26	X27	Y27	Z27	X28	Y28	Z28	X29	Y29	Z29	X30	Y30	Z30	X31	Y31	Z31	X32	Y32	Z32	X33	Y33	Z33	X34	Y34	Z34	X35	Y35	Z35	X36	Y36	Z36	X37	Y37	Z37	X38	Y38	Z38	X39	Y39	Z39	X40	Y40	Z40	X41	Y41	Z41	X42	Y42	Z42	X43	Y43	Z43	X44	Y44	Z44	X45	Y45	Z45	X46	Y46	Z46	X47	Y47	Z47	X48	Y48	Z48	X49	Y49	Z49	X50	Y50	Z50	X51	Y51	Z51	X52	Y52	Z52	X53	Y53	Z53	X54	Y54	Z54	X55	Y55	Z55	X56	Y56	Z56	X57	Y57	Z57	X58	Y58	Z58	X59	Y59	Z59	X60	Y60	Z60	X61	Y61	Z61	X62	Y62	Z62	X63	Y63	Z63	X64	Y64	Z64	X65	Y65	Z65	X66	Y66	Z66	X67	Y67	Z67	X68	Y68	Z68	X69	Y69	Z69	X70	Y70	Z70	X71	Y71	Z71	X72	Y72	Z72	

225	0.933	3198.941	914.58397	126.699	3248.5518810756384	891.2283662919442	51.818433560928185	3152.0392692879927	495.89804374738577	-47.49927819238354	3141.4186665292573	104.64424852910453	-124.51697621248083	2990.12460448487	27.858936754424416	-36.46942821417749	3162.9721079915466	911.5928610025031	213.28986098709925	3071.3886922221163	509.2246115974485	284.7501887151733	2993.3796482331786	84.2875694389072	366.7706980879091	2872.3824893689975	1.506755290591171	244.1150798712303	3135.517596241227	1033.132483771529	77.82440435690677	3075.0606790642046	1089.3370937761213	26.634032132360243	3009.1764498997195	1140.980467403161	-30.176617456830076	2942.3794969151	1179.505957276465	-89.28634658169356	2869.8180902746176	1221.064241887983	-150.7974065748545	2802.196419885367	1259.4877358450406	-204.28460957850714	2665.5164559226905	1339.5466312848241	-219.1471975198471	2909.9078730056513	1200.3911968585644	-153.61753116003925	2944.3627268868454	1152.507680566871	-248.17987464359553	2970.00422038566	941.3567603808195	-189.88676314895727	2934.6487091272584	819.7297771872609	-288.61513114181975	2937.3291384006957	833.6740494258473	-298.79222420753143	2929.2095979870774	837.0589667206553	-309.40979964361657	2923.4752845884504	835.8935559503012	-317.0704438452373	2918.6265146708274	831.9084630143294	-323.68483970917976	2938.416204668637	822.397550303757	-300.91807083497145	2938.9945552145164	813.0971654240689	-319.68486721148287	2933.374817398305	806.2407342734737	-331.4812085248116	2926.595592832518	805.3583712146774	-336.4480691106904	2918.7683044437053	806.908134100773	-338.9625790782394	2937.8926117724245	813.1219082793401	-300.92984267139354	2938.1752303838143	799.0335053302313	-319.24113808620876	2931.9644858557112	790.3575685039748	-332.05239048215293	2923.7479319050917	788.7199663667748	-338.0154957159478	2915.165148929543	790.1371044230536	-340.7526139944931	2937.5686786957854	806.7850260355373	-300.4775628761199	2937.718477721936	788.5967592281334	-316.5490929508432	2932.223835948702	779.8366031544888	-327.62412486988296	2924.255115010058	777.6207183887882	-333.32751909462047	2916.1646614224273	778.6516642591215	-335.87811025936634	2936.700067297102	799.9161091405655	-299.26838242665605	2936.5059706934867	778.9258844508748	-313.3311244353962	2931.97806969543	770.1212664481064	-321.9869324540858	2926.103734943971	767.639200275304	-326.0441396258997	2918.9012754661962	768.0541761301721	-328.2443416617602	2878.031048761788	1214.4853867341008	-106.04712757282687	2840.987491950145	1199.0791467470665	-2.764059052417802	2922.739728876626	1016.7789177960107	-84.11677805359054	2939.419584161326	862.4400853049838	-204.1315578447597	2949.944034624546	871.4142392661129	-214.55164996409314	2967.1807794068473	861.2711544490481	-223.29679186273793	2978.7357922382557	850.9987241290378	-229.83238777483365	2987.9848913221836	839.6900187959917	-235.66192821114203	2948.644364791834	861.7061544072042	-217.62669214083914	2963.9240238096677	844.4762693350741	-237.6422473971226	2978.066330265226	827.298403325864	-248.78225549381233	2987.9646177696445	817.7222860467216	-252.26117500771062	2996.9034682474103	810.540387319367	-252.81569080562502	2947.059067493308	853.3319107463409	-218.00909946212914	2961.1038936743257	831.9982456186204	-237.73931292418993	2976.281611239074	812.1982278875056	-249.87732799078196	2988.101471925235	800.1384677906915	-254.06589162602052	2997.8228615251105	792.0339297198267	-254.6684354310105	2945.513613966736	847.8834566582238	-217.80372066074264	2956.655082071853	824.1172917342506	-235.41066587654333	2969.602320565084	805.8139459746446	-245.9403794004888	2980.853910476339	793.6260999298402	-249.95410968725713	2989.9235660861377	785.7426641223026	-250.50810519776823	2943.569577959925	841.8802818443417	-216.7097428576983	2952.475710646443	816.4704669925861	-232.3089117896924	2962.3555394876275	800.2860380536513	-240.58593223845725	2970.3265109096283	790.6571320869862	-243.4386946345623	2978.224943215782	783.2483648835583	-243.88635366827813
226	0.938	3198.941	914.58397	126.699	3248.4825314810682	891.1486902385595	51.80461384999655	3151.9820845755903	495.849317223586	-47.64582903984151	3141.4543872366385	104.59772381974068	-124.67733871024451	2990.1724625936945	27.81328156480534	-36.60824058748171	3163.031305284353	911.6706912145667	213.3110750581025	3071.4408758103873	509.30214562059166	284.75848136883997	2993.3718071802045	84.35966260207658	366.6853758053765	2872.3833328656433	1.5720787005560775	244.02578579357942	3135.5659969155163	1033.1445394971743	77.79228444033713	3075.137417853134	1089.3497213612914	26.57049812708834	3009.2591443581628	1140.9736448711406	-30.26474942994628	2942.4560332893025	1179.4913242865741	-89.37331617453128	2869.887233478662	1221.0384504001436	-150.88394226902747	2802.2620533443906	1259.4560802283218	-204.37161161871114	2665.6054000405884	1339.529411720006	-219.3288985071948	2909.8750218932855	1200.1863034014966	-153.70450386279444	2943.981232973692	1151.8797906436062	-248.07786118546176	2969.1027457865866	941.1393373863891	-188.58063338942628	2933.1069443283504	819.2354128847343	-286.85629941771566	2935.6711791327384	833.0634125582629	-296.83997642071483	2927.5883278857978	836.341767892261	-307.1985252342084	2921.881991098604	835.1076951677428	-314.67020191531395	2917.0586209297667	831.0701082251383	-321.11972093344565	2936.7393611573316	821.7950058963756	-298.91742189953214	2937.193576321551	812.3547508650166	-317.2823434397671	2931.5778511386347	805.4070034258789	-328.7984354796102	2924.858397194477	804.4775076071049	-333.62891922203727	2917.119216150916	805.9947609532351	-336.0560844566105	2936.230986548658	812.5396085820823	-298.9198119957777	2936.400733127941	798.3257279160921	-316.8340558224246	2930.1968914943404	789.5532787142793	-329.3395650768439	2922.0536597963046	787.8603172596769	-335.13816843236555	2913.5678703591266	789.2426147312016	-337.7797316381904	2935.9200468796885	806.2205448896927	-298.4710289534847	2935.977257262887	787.9351385749853	-314.1893761037621	2930.491399194662	779.0942625072067	-324.9986148370887	2922.5948732983416	776.8267848283932	-330.5437017245335	2914.5963144190073	777.8258269126278	-333.00462158840674	2935.077306598619	799.3766325804135	-297.2785464818749	2934.811088530299	778.3125060804061	-311.0270789241066	2930.294949782344	769.4489787358431	-319.47267257968707	2924.475561977101	766.9320506070372	-323.41567893902675	2917.3558220746595	767.3203604512547	-325.53717665220665	2878.2118679079595	1214.6508803216352	-106.13598598737761	2841.336280984025	1199.7977670416085	-2.8032104199449392	2922.3408571810537	1017.0514697297282	-82.82696983868787	2938.166448483468	862.1689544222448	-201.829066700894	2948.566805965871	871.1654381630051	-212.2181320226189	2965.6084684964	861.0244087595519	-220.96082730255333	2977.0215627375364	850.7461491753267	-227.49012815390807	2986.1471629295593	839.4263736912432	-233.3104941210884	2947.2368471399386	861.4332548954778	-215.2687241511109	2962.245806092174	844.1742638182063	-235.2047540557547	2976.184604802435	826.9767908216606	-246.316906908359	2985.974012839476	817.3970132093282	-249.80350743504508	2994.834642886371	810.2178373564741	-250.3812427913551	2945.643760802392	853.0403077973947	-215.6427200180509	2959.4203457747976	831.6681373761521	-235.29080894203932	2974.3758275849054	811.8443521233173	-247.397610336021	2986.0642480936885	799.7790372955072	-251.59504821091116	2995.7000111941884	791.676925070178	-252.22280796847085	2944.0997726563496	847.5793228704532	-215.43310272128656	2955.0022902632004	823.7675973512846	-232.9618167636022	2967.7560770213763	805.4411723794257	-243.46362254712335	2978.8810150122017	793.2467129763511	-247.48553936008935	2987.870222966085	785.3649630953724	-248.0630667794555	2942.16479401596	841.5630209357214	-214.33910254346026	2950.8574610852556	816.103114112011	-229.8653898866108	2960.5838124142647	799.8967161952587	-238.11931016180353	2968.463095408502	790.2612987975507	-240.9776795876168	2976.290662680948	782.8530542134104	-241.4459746749116
227	0.942	3198.941	914.58397	126.699	3248.418610410631	891.0753733197257	51.7928114810912	3151.932863730397	495.8099819561006	-47.804626062622646	3141.4997224848144	104.56053941978513	-124.85011838874179	2990.2300256866793	27.776961638625956	-36.75932039515427	3163.0862545936147	911.7426698676198	213.32999767863205	3071.488048103741	509.37402748128403	284.76469150458576	2993.3584008670373	84.42607171520052	366.59795061262395	2872.37854488053	1.6316121188036687	243.9345226074121	3135.6088903373484	1033.154022619736	77.76127682104514	3075.206455467715	1089.357590984992	26.50812649194601	3009.332645035466	1140.9597306801477	-30.352230465308875	2942.5235865440195	1179.467447401901	-89.46131252191536	2869.9477578746255	1221.0013300197165	-150.97337157865033	2802.319398495393	1259.4111372840846	-204.4633526992709	2665.68641133358	1339.49896354803	-219.51803592663654	2909.8373032979	1199.9776018738403	-153.79255260158214	2943.599134266493	1151.2502264810846	-247.9786133594336	2968.1902786071473	940.9219742800746	-187.28191699964236	2931.5270826580945	818.7624335939905	-285.05106498296226	2933.9698127803663	832.473430297169	-294.8345566172408	2925.9210858808856	835.6509166003158	-304.92687364781835	2920.241138634863	834.3526795172584	-312.20430552676453	2915.4420153113774	830.2668039190864	-318.4843260425797	2935.019029561664	821.2144797787897	-296.86187688403083	2935.3429377257894	811.6393800763229	-314.81172609752815	2929.7285701582236	804.606379448194	-326.0393048408619	2923.0684532991877	803.6341042692612	-330.73001471284704	2915.417841560499	805.122845459799	-333.06819763161707	2934.526707198758	811.9807241090518	-296.8546820771771	2934.578012617837	797.6470223765513	-314.3588917414688	2928.378308996917	788.7848479188053	-326.5496574960668	2920.3079398190694	787.0418616516556	-332.17966879821654	2911.9196801357216	788.393732223188	-334.72388900279714	2934.2294909603065	805.6803160500315	-296.40957541377986	2934.1897070243244	787.3035032966877	-311.7632206225918	2928.7103666628295	778.3879893642967	-322.2988594489441	2920.885668833097	776.0741525240824	-327.68171401149925	2912.979545166465	777.0454828615507	-330.05129129524653	2933.413772669325	798.8623975481963	-295.2344879900186	2933.072044204401	777.7301665658009	-308.6586252605112	2928.56609711402	768.8128348242013	-316.88786311465157	2922.8015065707846	766.2649758364468	-320.71385879782497	2915.765032944055	766.630398378999	-322.7552023453709	2878.379882700232	1214.7987368779777	-106.22825597360932	2841.665259530663	1200.4825823464798	-2.857222111143781	2921.8701394305363	1017.2499086124183	-81.50963383326166	2936.954217139502	862.0008688865701	-199.65698217999423	2947.223664975259	871.0129586571948	-210.0181306780681	2964.0710732335974	860.87189772168	-218.76313577484493	2975.343992979795	850.5869926478666	-225.28858570095852	2984.348546952762	839.2560115477672	-231.1010720255805	2945.866487680305	861.2579746220175	-213.04102245687176	2960.605468858818	843.9655477672613	-232.89592800275884	2974.34387424187	826.7474275903817	-243.9813763924535	2984.0267653258993	817.1642427985558	-247.47844708668953	2992.8114181448946	809.9886062465059	-248.08310924289242	2944.2688863671215	852.8483014404056	-213.40440891316575	2957.779704978097	831.4344716003251	-232.9676241702301	2972.5167822265394	811.5860610367267	-245.04418567135815	2984.076820783213	799.5156300437859	-249.2537274802731	2993.629512764965	791.4169017426458	-249.9106938345444	2942.7286396551826	847.3762764360176	-213.18901209348073	2953.396345667357	823.5174086921912	-230.63560882897417	2965.9604587493372	805.1674455414703	-241.1100718662745	2976.961927644559	792.9669490237366	-245.1431399911991	2985.8732012545306	785.0878586128205	-245.7478802006173	2940.805468312151	841.3488228094228	-212.09348809888448	2949.290098564715	815.8385335026503	-227.5423060619192	2958.866664440782	799.6102566106337	-235.77315345320363	2966.656903148739	789.968969354933	-238.6390865845949	2974.416017281092	782.562237120604	-239.13115999510595
228	0.946	3198.941	914.58397	126.699	3248.3608929119205	891.0093326292207	51.78330442272341	3151.891379533274	495.78028406147547	-47.97176384171462	3141.5544575849194	104.53304326286639	-125.03192346561634	2990.2966955865645	27.750209460926033	-36.920032342551096	3163.1363150930874	911.8079238903385	213.34628981224245	3071.5297845922846	509.4392079347389	284.7677812703335	2993.3391220410003	84.48576968238866	366.5075901507948	2872.3677155420605	1.6843907051381537	243.8405178419415	3135.6456431748543	1033.16069279716	77.73163830019719	3075.265389863101	1089.3586981361266	26.44721072615476	3009.3940364481678	1140.9360567391043	-30.438811280717736	2942.5798155559805	1179.4314502261857	-89.55086830761904	2869.9979781752963	1220.9499296867837	-151.06704589507808	2802.367317012937	1259.3498539192894	-204.56194763878995	2665.7587949783565	1339.4530616967465	-219.7166045122995	2909.795208766117	1199.7665330887626	-153.88199884687796	2943.2181449938744	1150.6208399824372	-247.88251131293035	2967.2676237331566	940.7066086691167	-185.9978029525094	2929.904163987408	818.3206156240507	-283.17829118822226	2932.223312249493	831.9177669379392	-292.75644501450756	2924.2073559301543	835.0026746652819	-302.57898758633524	2918.552656719734	833.6462619549986	-309.65968122016267	2913.776658402539	829.5172742302764	-315.7681020015769	2933.252476644331	820.6689428611827	-294.7328044246645	2933.4412992057	810.967341159916	-312.25949540881817	2927.8259442798794	803.8569826389379	-323.1943686464289	2921.224777778691	802.8471606431357	-327.74413488580745	2913.6631375665593	804.3119393418942	-329.9933361669042	2932.775878593739	811.4572232317383	-294.7163027112035	2932.7039041198614	797.0120505010635	-311.80274144526794	2926.5057532642504	788.0687935815397	-323.67425407402595	2918.5077672104294	786.2821086577513	-329.13429302461986	2910.217471171552	787.6085368351279	-331.5811859325541	2932.492263700377	805.1755184107988	-294.27525885755836	2932.351007492336	786.7147707996604	-309.25755609873175	2926.875912080719	777.7321674171792	-319.5157427844832	2919.122569612868	775.3780814669733	-324.73507539975856	2911.3092843284194	776.3263907953509	-327.01334484617036	2931.7036614605013	798.3835499508897	-293.1183749789794	2931.2823309425585	777.189982071788	-306.21246228663637	2926.784744894703	768.2248816998579	-314.2224112625372	2921.074601660782	765.6505444538338	-317.93052881918555	2914.1217485102375	765.9972323934372	-319.89179125003864	2878.5306770198877	1214.921542774429	-106.32573546660223	2841.971813472564	1201.1306624254628	-2.926717009732673	2921.3223740049725	1017.3687777880795	-80.16577114063226	2935.788138998132	861.9377499724018	-197.61575305496166	2945.9163629221985	870.9561912367191	-207.95139726153735	2962.5698020044124	860.8127607497476	-216.7049508807613	2973.7045804162044	850.5204989440389	-223.2297916156629	2982.591352580168	839.1785036312173	-229.0361572370307	2944.536981132966	861.1802954532172	-210.9421126980156	2959.0073570313953	843.8489541033558	-230.71187345220434	2972.549615218106	826.6093055157846	-241.77179496591253	2982.128834410685	817.0234528134009	-245.28346031340882	2990.840003538445	809.8528356373529	-245.9207512876163	2942.939963115683	852.7567201628349	-211.29221913054073	2956.189110896863	831.2974137480006	-230.76519366214845	2970.713089141486	811.4238101573022	-242.81246596024727	2982.148501051199	799.3493440268156	-247.03892732397944	2991.6210070513825	791.2557110820417	-247.73126132073332	2941.407003673498	847.2757651466018	-211.06921023335252	2951.8465847018515	823.3680931306949	-228.4271475796681	2964.226329430574	804.9945059824508	-238.87476349407058	2975.1083130882853	792.7892322130895	-242.92345137329355	2983.944536660315	784.9145134766394	-243.56111364657315	2939.4998531964557	841.239946347169	-209.97054798638754	2947.785106621725	815.6793827282145	-225.33473716231106	2957.2171688544945	799.4298037931275	-233.5424183866755	2964.92176912469	789.7838779218821	-236.41893723962764	2972.615272758641	782.3803544499686	-236.93970995595498
